<?xml version="1.0" encoding="UTF-8"?>
<svg width="128px" height="128px" viewBox="0 0 128 128" version="1.1" xmlns="http://www.w3.org/2000/svg" xmlns:xlink="http://www.w3.org/1999/xlink">
    <!-- Generator: sketchtool 49.1 (51147) - http://www.bohemiancoding.com/sketch -->
    <title>ADF76825-4805-492D-8224-DE49EB179301</title>
    <desc>Created with sketchtool.</desc>
    <defs>
        <ellipse id="path-1" cx="64" cy="63.7502439" rx="64" ry="63.7502439"></ellipse>
    </defs>
    <g id="Page-1" stroke="none" stroke-width="1" fill="none" fill-rule="evenodd">
        <g id="Main-menu" transform="translate(-74.000000, -82.000000)">
            <g id="Group" transform="translate(74.000000, 82.000000)">
                <mask id="mask-2" fill="white">
                    <use xlink:href="#path-1"></use>
                </mask>
                <use id="Mask" fill="#FFFFFF" xlink:href="#path-1"></use>
                <path d="M86.2050747,111.017377 C75.3219825,111.017377 73.1678444,105.061832 73.1920323,100.2761 C79.5406213,96.5004715 86.2733697,89.9733276 89.3366848,81.103753 C89.7493005,81.3503246 90.2174057,81.3797451 90.7495376,81.0743325 C93.6250415,79.4183797 94.736258,65.9942344 93.0715675,62.3222782 C92.2477591,60.5052132 91.3812663,60.743379 90.7139673,61.4438667 C90.5346929,59.1490692 90.2672042,56.9411321 89.8801992,54.8368672 L92.3971544,55.6942641 C92.3971544,55.6942641 93.6008537,46.3931891 89.9854873,37.8612496 L94.3549443,37.9032788 C91.8835191,34.2453323 88.5157221,32.0906323 85.4054541,30.803136 C81.8313493,27.1045613 76.5271046,24.3824663 68.6660659,24 C68.6660659,24 58.3008774,24.0686478 56.119706,30.4458873 C56.119706,30.4458873 49.095281,26.4867311 42.7523832,32.0570089 C42.7523832,32.0570089 31.0241404,39.5774443 31.8422575,55.4238759 L35.0378942,54.6001024 C34.5797486,56.9131126 34.2709983,59.3606164 34.0703818,61.9075895 C33.3675124,60.918501 32.3046716,60.1367567 31.3343135,62.3376889 C29.7080389,66.0264569 30.9643823,79.4379934 33.8569599,81.0631247 C34.4203936,81.3797451 34.9084183,81.3209042 35.3338392,81.0323033 C38.3587384,90.3403831 45.2664928,97.0790743 51.9138724,100.773446 C52.0020868,105.53396 49.7668485,111.212113 38.5792744,111.212113 C25.8038416,111.212113 14.7044819,116.792198 14.4,125.198049 L14.4071141,125.198049 C14.4882144,126.599025 14.8922931,128 16.1529049,128 L108.490586,128 C110.277638,128 110.384349,126.599025 110.384349,125.198049 L110.4,125.198049 C110.4,116.795 99.1626275,111.017377 86.2050747,111.017377 Z" id="Shape" fill="#438CCB" fill-rule="nonzero" mask="url(#mask-2)"></path>
            </g>
        </g>
    </g>
</svg>